<?xml version="1.0" encoding="UTF-8" standalone="no"?>
<!-- Created with Inkscape (http://www.inkscape.org/) -->

<svg
   xmlns:dc="http://purl.org/dc/elements/1.1/"
   xmlns:cc="http://creativecommons.org/ns#"
   xmlns:rdf="http://www.w3.org/1999/02/22-rdf-syntax-ns#"
   xmlns:svg="http://www.w3.org/2000/svg"
   xmlns="http://www.w3.org/2000/svg"
   xmlns:sodipodi="http://sodipodi.sourceforge.net/DTD/sodipodi-0.dtd"
   xmlns:inkscape="http://www.inkscape.org/namespaces/inkscape"
   width="128"
   height="128"
   id="svg2"
   version="1.1"
   inkscape:version="0.48.4 r9939"
   inkscape:export-filename="/home/corne/Development/Sailfish/Recorder/qml/icons/record.png"
   inkscape:export-xdpi="90"
   inkscape:export-ydpi="90"
   sodipodi:docname="New document 1">
  <defs
     id="defs4" />
  <sodipodi:namedview
     id="base"
     pagecolor="#191919"
     bordercolor="#666666"
     borderopacity="1.0"
     inkscape:pageopacity="0"
     inkscape:pageshadow="2"
     inkscape:zoom="3.959798"
     inkscape:cx="16.055868"
     inkscape:cy="52.165906"
     inkscape:document-units="px"
     inkscape:current-layer="layer1"
     showgrid="false"
     inkscape:window-width="1920"
     inkscape:window-height="1055"
     inkscape:window-x="1920"
     inkscape:window-y="0"
     inkscape:window-maximized="1" />
  <metadata
     id="metadata7">
    <rdf:RDF>
      <cc:Work
         rdf:about="">
        <dc:format>image/svg+xml</dc:format>
        <dc:type
           rdf:resource="http://purl.org/dc/dcmitype/StillImage" />
        <dc:title></dc:title>
      </cc:Work>
    </rdf:RDF>
  </metadata>
  <g
     inkscape:label="Layer 1"
     inkscape:groupmode="layer"
     id="layer1"
     transform="translate(0,-924.36218)">
    <path
       sodipodi:type="arc"
       style="opacity:0.105;fill:#ffffff;fill-opacity:1;stroke:none"
       id="path2985"
       sodipodi:cx="58.210041"
       sodipodi:cy="56.531708"
       sodipodi:rx="15.026019"
       sodipodi:ry="18.435284"
       d="m 73.23606,56.531708 a 15.026019,18.435284 0 1 1 -30.052038,0 15.026019,18.435284 0 1 1 30.052038,0 z"
       transform="matrix(3.0613564,0,0,2.4952152,-114.20168,847.3034)" />
    <g
       id="g3759"
       transform="translate(-2.03171,-9.9124782)">
      <rect
         ry="2.5"
         rx="2.5"
         y="977.77466"
         x="-71.468292"
         height="41"
         width="11"
         id="rect3755"
         style="fill:none;stroke:#ffffff;stroke-width:1;stroke-opacity:1" />
      <rect
         style="fill:none;stroke:#ffffff;stroke-width:1;stroke-opacity:1"
         id="rect3757"
         width="11"
         height="41"
         x="-47.468292"
         y="977.77466"
         rx="2.5"
         ry="2.5" />
    </g>
    <rect
       style="fill:none;stroke:#ffffff;stroke-width:1;stroke-linecap:round;stroke-miterlimit:4;stroke-opacity:1;stroke-dasharray:none;stroke-dashoffset:0"
       id="rect3765"
       width="41"
       height="41"
       x="-136.5"
       y="967.86218"
       rx="2.5"
       ry="2.5" />
    <path
       sodipodi:type="arc"
       style="fill:#c83737;stroke:none"
       id="path3767"
       sodipodi:cx="-91.166267"
       sodipodi:cy="27.994898"
       sodipodi:rx="20.708128"
       sodipodi:ry="20.708128"
       d="m -70.458139,27.994898 a 20.708128,20.708128 0 1 1 -41.416261,0 20.708128,20.708128 0 1 1 41.416261,0 z"
       transform="matrix(1.0140946,0,0,1.0140946,156.45122,959.97271)" />
    <path
       sodipodi:type="star"
       style="fill:none;stroke:#ffffff;stroke-width:0.95759368;stroke-opacity:1"
       id="path3791"
       sodipodi:sides="3"
       sodipodi:cx="-106.31856"
       sodipodi:cy="113.10025"
       sodipodi:r1="24.234451"
       sodipodi:r2="14.298326"
       sodipodi:arg1="-2.0943951"
       sodipodi:arg2="-1.0471976"
       inkscape:flatsided="false"
       inkscape:rounded="0.11"
       inkscape:randomized="0"
       d="m -118.43578,92.1126 c 2.01011,-1.160538 17.25627,7.444399 19.266384,8.60494 2.01011,1.16053 17.085289,10.06164 17.08529,12.38271 0,2.32107 -15.075179,11.22218 -17.085288,12.38271 -2.010106,1.16054 -17.256276,9.76548 -19.266386,8.60494 -2.01011,-1.16054 -2.1811,-18.66657 -2.1811,-20.98765 0,-2.32107 0.17099,-19.827113 2.1811,-20.98765 z"
       transform="matrix(1.0443249,0,0,1.0442436,-9.77752,810.25797)"
       inkscape:transform-center-x="-4.8086457" />
  </g>
</svg>
