<?xml version="1.0" encoding="UTF-8" standalone="no"?>
<!-- Generator: Adobe Illustrator 17.0.1, SVG Export Plug-In . SVG Version: 6.00 Build 0)  -->

<svg
   xmlns:dc="http://purl.org/dc/elements/1.1/"
   xmlns:cc="http://creativecommons.org/ns#"
   xmlns:rdf="http://www.w3.org/1999/02/22-rdf-syntax-ns#"
   xmlns:svg="http://www.w3.org/2000/svg"
   xmlns="http://www.w3.org/2000/svg"
   xmlns:xlink="http://www.w3.org/1999/xlink"
   xmlns:sodipodi="http://sodipodi.sourceforge.net/DTD/sodipodi-0.dtd"
   xmlns:inkscape="http://www.inkscape.org/namespaces/inkscape"
   version="1.1"
   x="0px"
   y="0px"
   width="86px"
   height="86px"
   viewBox="0 0 86 86"
   enable-background="new 0 0 86 86"
   xml:space="preserve"
   id="svg3066"
   inkscape:version="0.48.4 r9939"
   sodipodi:docname="icon-launcher.svg"
   inkscape:export-filename="/home/corne/Development/Sailfish/Recorder/Recorder.png"
   inkscape:export-xdpi="90"
   inkscape:export-ydpi="90"><metadata
     id="metadata3091"><rdf:RDF><cc:Work
         rdf:about=""><dc:format>image/svg+xml</dc:format><dc:type
           rdf:resource="http://purl.org/dc/dcmitype/StillImage" /><dc:title></dc:title></cc:Work></rdf:RDF></metadata><defs
     id="defs3089"><linearGradient
       id="linearGradient4197"><stop
         style="stop-color:#161616;stop-opacity:1;"
         offset="0"
         id="stop4199" /><stop
         style="stop-color:#353535;stop-opacity:1;"
         offset="1"
         id="stop4201" /></linearGradient><linearGradient
       id="linearGradient4165"><stop
         style="stop-color:#c83737;stop-opacity:1;"
         offset="0"
         id="stop4167" /><stop
         style="stop-color:#b03131;stop-opacity:1;"
         offset="1"
         id="stop4169" /></linearGradient><linearGradient
       id="linearGradient4149"><stop
         style="stop-color:#3a3a3a;stop-opacity:1;"
         offset="0"
         id="stop4151" /><stop
         id="stop4157"
         offset="0.5"
         style="stop-color:#848484;stop-opacity:1;" /><stop
         style="stop-color:#6a6a6a;stop-opacity:1;"
         offset="0.75"
         id="stop4159" /><stop
         style="stop-color:#7f7f7f;stop-opacity:1;"
         offset="1"
         id="stop4153" /></linearGradient><linearGradient
       id="linearGradient4036"><stop
         style="stop-color:#e59a9a;stop-opacity:1;"
         offset="0"
         id="stop4038" /><stop
         style="stop-color:#b02d2d;stop-opacity:1;"
         offset="1"
         id="stop4040" /></linearGradient><linearGradient
       y2="0.7169"
       x2="85.2831"
       y1="85.2831"
       x1="0.7169"
       gradientUnits="userSpaceOnUse"
       id="SVGID_1_"><stop
         id="stop3071"
         style="stop-color:#105f99;stop-opacity:1;"
         offset="0" /><stop
         id="stop3073"
         style="stop-color:#00d8c2;stop-opacity:1;"
         offset="1" /></linearGradient><linearGradient
       inkscape:collect="always"
       xlink:href="#SVGID_1_"
       id="linearGradient3102"
       gradientUnits="userSpaceOnUse"
       x1="0.7169"
       y1="85.2831"
       x2="85.2831"
       y2="0.7169"
       gradientTransform="translate(-100,0)" /><linearGradient
       y2="18.8514"
       x2="6.7618999"
       y1="91.327904"
       x1="79.238297"
       gradientUnits="userSpaceOnUse"
       id="SVGID_1_-1"><stop
         id="stop3877"
         style="stop-color:#2ae0b4;stop-opacity:1;"
         offset="0" /><stop
         id="stop3879"
         style="stop-color:#d27949;stop-opacity:1;"
         offset="0.99510002" /></linearGradient><linearGradient
       inkscape:collect="always"
       xlink:href="#SVGID_1_"
       id="linearGradient3929"
       gradientUnits="userSpaceOnUse"
       x1="79.238297"
       y1="91.327904"
       x2="6.7618999"
       y2="18.8514" /><linearGradient
       inkscape:collect="always"
       xlink:href="#linearGradient4149"
       id="linearGradient4155"
       x1="7.8125"
       y1="76.25"
       x2="23.5625"
       y2="76.25"
       gradientUnits="userSpaceOnUse" /><linearGradient
       inkscape:collect="always"
       xlink:href="#linearGradient4165"
       id="linearGradient4171"
       x1="7.8125"
       y1="76.25"
       x2="23.5625"
       y2="76.25"
       gradientUnits="userSpaceOnUse" /><linearGradient
       inkscape:collect="always"
       xlink:href="#linearGradient4165"
       id="linearGradient4175"
       gradientUnits="userSpaceOnUse"
       x1="7.8125"
       y1="76.25"
       x2="23.5625"
       y2="76.25" /><linearGradient
       inkscape:collect="always"
       xlink:href="#linearGradient4197"
       id="linearGradient4203"
       x1="21.23662"
       y1="16.899048"
       x2="69.71212"
       y2="70.462387"
       gradientUnits="userSpaceOnUse" /></defs><sodipodi:namedview
     pagecolor="#ffffff"
     bordercolor="#666666"
     borderopacity="1"
     objecttolerance="10"
     gridtolerance="10"
     guidetolerance="10"
     inkscape:pageopacity="0"
     inkscape:pageshadow="2"
     inkscape:window-width="1920"
     inkscape:window-height="1030"
     id="namedview3087"
     showgrid="false"
     showguides="true"
     inkscape:guide-bbox="true"
     inkscape:snap-bbox="false"
     inkscape:bbox-paths="true"
     inkscape:bbox-nodes="true"
     inkscape:snap-bbox-edge-midpoints="true"
     inkscape:snap-bbox-midpoints="true"
     inkscape:zoom="4"
     inkscape:cx="-22.528147"
     inkscape:cy="32.891982"
     inkscape:window-x="0"
     inkscape:window-y="0"
     inkscape:window-maximized="1"
     inkscape:current-layer="svg3066" /><g
     id="Layer_2"
     display="none" /><path
     inkscape:connector-curvature="0"
     style="fill:url(#linearGradient3102)"
     id="path3075"
     d="M -15.723,0.3 H -57 c -23.583,0 -42.7,19.118 -42.7,42.7 v 41.277 c 0,0.786 0.637,1.423 1.423,1.423 H -57 c 23.583,0 42.7,-19.118 42.7,-42.7 V 1.723 C -14.3,0.937 -14.937,0.3 -15.723,0.3 z" /><g
     style="display:none"
     id="Layer_2-1"
     display="none" /><path
     style="fill:url(#linearGradient3929);fill-opacity:1.0"
     id="path3881"
     d="M 43,0.3 C 19.417,0.3 0.3,19.418 0.3,43 c 0,0.408 0,41.277 0,41.277 0,0.786 0.637,1.423 1.423,1.423 h 82.553 c 0.786,0 1.423,-0.637 1.423,-1.423 0,0 0,-40.908 0,-41.277 C 85.7,19.418 66.583,0.3 43,0.3 z"
     inkscape:connector-curvature="0" /><path
     inkscape:connector-curvature="0"
     d="m 72.187,27.294231 c 0,2.669715 -2.164231,4.833946 -4.833946,4.833946 -2.669716,0 -4.833947,-2.164231 -4.833947,-4.833946 0,-2.669716 2.164231,-4.833947 4.833947,-4.833947 2.669715,0 4.833946,2.164231 4.833946,4.833947 z m 0,14 c 0,2.669715 -2.164231,4.833946 -4.833946,4.833946 -2.669716,0 -4.833947,-2.164231 -4.833947,-4.833946 0,-2.669716 2.164231,-4.833947 4.833947,-4.833947 2.669715,0 4.833946,2.164231 4.833946,4.833947 z m 0,14 c 0,2.669716 -2.164231,4.833947 -4.833946,4.833947 -2.669716,0 -4.833947,-2.164231 -4.833947,-4.833947 0,-2.669715 2.164231,-4.833946 4.833947,-4.833946 2.669715,0 4.833946,2.164231 4.833946,4.833946 z m -48,0 c 0,2.669716 -2.164231,4.833947 -4.833946,4.833947 -2.669716,0 -4.833947,-2.164231 -4.833947,-4.833947 0,-2.669715 2.164231,-4.833946 4.833947,-4.833946 2.669715,0 4.833946,2.164231 4.833946,4.833946 z m 0,-14 c 0,2.669715 -2.164231,4.833946 -4.833946,4.833946 -2.669716,0 -4.833947,-2.164231 -4.833947,-4.833946 0,-2.669716 2.164231,-4.833947 4.833947,-4.833947 2.669715,0 4.833946,2.164231 4.833946,4.833947 z m 0,-14 c 0,2.669715 -2.164231,4.833946 -4.833946,4.833946 -2.669716,0 -4.833947,-2.164231 -4.833947,-4.833946 0,-2.669716 2.164231,-4.833947 4.833947,-4.833947 2.669715,0 4.833946,2.164231 4.833946,4.833947 z m 12,-7 c 0,2.669715 -2.164231,4.833946 -4.833946,4.833946 -2.669716,0 -4.833947,-2.164231 -4.833947,-4.833946 0,-2.669716 2.164231,-4.833947 4.833947,-4.833947 2.669715,0 4.833946,2.164231 4.833946,4.833947 z m 0,14 c 0,2.669715 -2.164231,4.833946 -4.833946,4.833946 -2.669716,0 -4.833947,-2.164231 -4.833947,-4.833946 0,-2.669716 2.164231,-4.833947 4.833947,-4.833947 2.669715,0 4.833946,2.164231 4.833946,4.833947 z m 0,14 c 0,2.669715 -2.164231,4.833946 -4.833946,4.833946 -2.669716,0 -4.833947,-2.164231 -4.833947,-4.833946 0,-2.669716 2.164231,-4.833947 4.833947,-4.833947 2.669715,0 4.833946,2.164231 4.833946,4.833947 z m 0,14 c 0,2.669716 -2.164231,4.833947 -4.833946,4.833947 -2.669716,0 -4.833947,-2.164231 -4.833947,-4.833947 0,-2.669715 2.164231,-4.833946 4.833947,-4.833946 2.669715,0 4.833946,2.164231 4.833946,4.833946 z m 24,-42 c 0,2.669715 -2.164231,4.833946 -4.833947,4.833946 -2.669715,0 -4.833946,-2.164231 -4.833946,-4.833946 0,-2.669716 2.164231,-4.833947 4.833946,-4.833947 2.669716,0 4.833947,2.164231 4.833947,4.833947 z m 0,14 c 0,2.669715 -2.164231,4.833946 -4.833947,4.833946 -2.669715,0 -4.833946,-2.164231 -4.833946,-4.833946 0,-2.669716 2.164231,-4.833947 4.833946,-4.833947 2.669716,0 4.833947,2.164231 4.833947,4.833947 z m 0,14 c 0,2.669715 -2.164231,4.833946 -4.833947,4.833946 -2.669715,0 -4.833946,-2.164231 -4.833946,-4.833946 0,-2.669716 2.164231,-4.833947 4.833946,-4.833947 2.669716,0 4.833947,2.164231 4.833947,4.833947 z m 0,14 c 0,2.669716 -2.164231,4.833947 -4.833947,4.833947 -2.669715,0 -4.833946,-2.164231 -4.833946,-4.833947 0,-2.669715 2.164231,-4.833946 4.833946,-4.833946 2.669716,0 4.833947,2.164231 4.833947,4.833946 z M 48.187001,13.29423 c 0,2.669716 -2.164231,4.833947 -4.833947,4.833947 -2.669715,0 -4.833946,-2.164231 -4.833946,-4.833947 0,-2.669715 2.164231,-4.8339454 4.833946,-4.8339454 2.669716,0 4.833947,2.1642304 4.833947,4.8339454 z m 0,14.000001 c 0,2.669715 -2.164231,4.833946 -4.833947,4.833946 -2.669715,0 -4.833946,-2.164231 -4.833946,-4.833946 0,-2.669716 2.164231,-4.833947 4.833946,-4.833947 2.669716,0 4.833947,2.164231 4.833947,4.833947 z m 0,14 c 0,2.669715 -2.164231,4.833946 -4.833947,4.833946 -2.669715,0 -4.833946,-2.164231 -4.833946,-4.833946 0,-2.669716 2.164231,-4.833947 4.833946,-4.833947 2.669716,0 4.833947,2.164231 4.833947,4.833947 z m 0,14 c 0,2.669716 -2.164231,4.833947 -4.833947,4.833947 -2.669715,0 -4.833946,-2.164231 -4.833946,-4.833947 0,-2.669715 2.164231,-4.833946 4.833946,-4.833946 2.669716,0 4.833947,2.164231 4.833947,4.833946 z m 0,14 c 0,2.669716 -2.164231,4.833947 -4.833947,4.833947 -2.669715,0 -4.833946,-2.164231 -4.833946,-4.833947 0,-2.669715 2.164231,-4.833946 4.833946,-4.833946 2.669716,0 4.833947,2.164231 4.833947,4.833946 z"
     style="opacity:0.98999999000000005;fill:#535353;fill-opacity:1;stroke:none"
     id="path4205" /><g
     id="g3883"
     transform="translate(80,0)"><path
       id="path3885"
       d="m 10.6,33.725 c 0,-0.786 0.647,-1.424 1.445,-1.424 h 61.909 c 0.798,0 1.445,0.638 1.445,1.424 v 39.949 c 0,0.786 -0.647,1.424 -1.445,1.424 H 12.045 C 11.247,75.098 10.6,74.46 10.6,73.674 V 33.725 z"
       inkscape:connector-curvature="0"
       style="fill:#d7ca95" /></g><path
     id="path3887"
     d="m 140.093,59.403 c -0.063,-0.066 -0.131,-0.125 -0.201,-0.174 -0.231,-0.266 -0.466,-0.528 -0.711,-0.785 -9.056,-9.527 -23.74,-9.527 -32.796,0 -0.244,0.257 -0.479,0.52 -0.709,0.785 -0.072,0.049 -0.14,0.107 -0.202,0.174 l -14.126,14.86 c 0.354,0.373 0.62,0.437 1.005,0.437 h 61.113 c 0.372,0 0.639,-0.07 0.868,-0.31 L 140.093,59.403 z"
     inkscape:connector-curvature="0"
     style="opacity:0.3;fill:#feffab" /><path
     id="path3889"
     d="m 91.3,32.701 14.224,14.928 c 0.063,0.066 0.131,0.125 0.202,0.174 0.232,0.268 0.468,0.53 0.714,0.789 9.105,9.563 23.868,9.563 32.973,0 0.245,-0.259 0.482,-0.523 0.713,-0.789 0.072,-0.049 0.14,-0.108 0.203,-0.174 L 154.7,32.6 c -0.247,-0.259 -0.565,-0.363 -0.925,-0.363 H 92.332 c -0.373,0 -0.774,0.193 -1.032,0.464 z"
     inkscape:connector-curvature="0"
     style="opacity:0.7;fill:#f6ffed" /><path
     id="path4143"
     style="opacity:0.98999999000000005;fill:url(#linearGradient4203);fill-opacity:1.0;stroke:none"
     d="m 71.833446,27.647785 c 0,2.669715 -2.164231,4.833946 -4.833946,4.833946 -2.669716,0 -4.833947,-2.164231 -4.833947,-4.833946 0,-2.669716 2.164231,-4.833947 4.833947,-4.833947 2.669715,0 4.833946,2.164231 4.833946,4.833947 z m 0,14 c 0,2.669715 -2.164231,4.833946 -4.833946,4.833946 -2.669716,0 -4.833947,-2.164231 -4.833947,-4.833946 0,-2.669716 2.164231,-4.833947 4.833947,-4.833947 2.669715,0 4.833946,2.164231 4.833946,4.833947 z m 0,14 c 0,2.669716 -2.164231,4.833947 -4.833946,4.833947 -2.669716,0 -4.833947,-2.164231 -4.833947,-4.833947 0,-2.669715 2.164231,-4.833946 4.833947,-4.833946 2.669715,0 4.833946,2.164231 4.833946,4.833946 z m -48,0 c 0,2.669716 -2.164231,4.833947 -4.833946,4.833947 -2.669716,0 -4.833947,-2.164231 -4.833947,-4.833947 0,-2.669715 2.164231,-4.833946 4.833947,-4.833946 2.669715,0 4.833946,2.164231 4.833946,4.833946 z m 0,-14 c 0,2.669715 -2.164231,4.833946 -4.833946,4.833946 -2.669716,0 -4.833947,-2.164231 -4.833947,-4.833946 0,-2.669716 2.164231,-4.833947 4.833947,-4.833947 2.669715,0 4.833946,2.164231 4.833946,4.833947 z m 0,-14 c 0,2.669715 -2.164231,4.833946 -4.833946,4.833946 -2.669716,0 -4.833947,-2.164231 -4.833947,-4.833946 0,-2.669716 2.164231,-4.833947 4.833947,-4.833947 2.669715,0 4.833946,2.164231 4.833946,4.833947 z m 12,-7 c 0,2.669715 -2.164231,4.833946 -4.833946,4.833946 -2.669716,0 -4.833947,-2.164231 -4.833947,-4.833946 0,-2.669716 2.164231,-4.833947 4.833947,-4.833947 2.669715,0 4.833946,2.164231 4.833946,4.833947 z m 0,14 c 0,2.669715 -2.164231,4.833946 -4.833946,4.833946 -2.669716,0 -4.833947,-2.164231 -4.833947,-4.833946 0,-2.669716 2.164231,-4.833947 4.833947,-4.833947 2.669715,0 4.833946,2.164231 4.833946,4.833947 z m 0,14 c 0,2.669715 -2.164231,4.833946 -4.833946,4.833946 -2.669716,0 -4.833947,-2.164231 -4.833947,-4.833946 0,-2.669716 2.164231,-4.833947 4.833947,-4.833947 2.669715,0 4.833946,2.164231 4.833946,4.833947 z m 0,14 c 0,2.669716 -2.164231,4.833947 -4.833946,4.833947 -2.669716,0 -4.833947,-2.164231 -4.833947,-4.833947 0,-2.669715 2.164231,-4.833946 4.833947,-4.833946 2.669715,0 4.833946,2.164231 4.833946,4.833946 z m 24,-42 c 0,2.669715 -2.164231,4.833946 -4.833947,4.833946 -2.669715,0 -4.833946,-2.164231 -4.833946,-4.833946 0,-2.669716 2.164231,-4.833947 4.833946,-4.833947 2.669716,0 4.833947,2.164231 4.833947,4.833947 z m 0,14 c 0,2.669715 -2.164231,4.833946 -4.833947,4.833946 -2.669715,0 -4.833946,-2.164231 -4.833946,-4.833946 0,-2.669716 2.164231,-4.833947 4.833946,-4.833947 2.669716,0 4.833947,2.164231 4.833947,4.833947 z m 0,14 c 0,2.669715 -2.164231,4.833946 -4.833947,4.833946 -2.669715,0 -4.833946,-2.164231 -4.833946,-4.833946 0,-2.669716 2.164231,-4.833947 4.833946,-4.833947 2.669716,0 4.833947,2.164231 4.833947,4.833947 z m 0,14 c 0,2.669716 -2.164231,4.833947 -4.833947,4.833947 -2.669715,0 -4.833946,-2.164231 -4.833946,-4.833947 0,-2.669715 2.164231,-4.833946 4.833946,-4.833946 2.669716,0 4.833947,2.164231 4.833947,4.833946 z M 47.833447,13.647784 c 0,2.669716 -2.164231,4.833947 -4.833947,4.833947 -2.669715,0 -4.833946,-2.164231 -4.833946,-4.833947 0,-2.669715 2.164231,-4.833946 4.833946,-4.833946 2.669716,0 4.833947,2.164231 4.833947,4.833946 z m 0,14.000001 c 0,2.669715 -2.164231,4.833946 -4.833947,4.833946 -2.669715,0 -4.833946,-2.164231 -4.833946,-4.833946 0,-2.669716 2.164231,-4.833947 4.833946,-4.833947 2.669716,0 4.833947,2.164231 4.833947,4.833947 z m 0,14 c 0,2.669715 -2.164231,4.833946 -4.833947,4.833946 -2.669715,0 -4.833946,-2.164231 -4.833946,-4.833946 0,-2.669716 2.164231,-4.833947 4.833946,-4.833947 2.669716,0 4.833947,2.164231 4.833947,4.833947 z m 0,14 c 0,2.669716 -2.164231,4.833947 -4.833947,4.833947 -2.669715,0 -4.833946,-2.164231 -4.833946,-4.833947 0,-2.669715 2.164231,-4.833946 4.833946,-4.833946 2.669716,0 4.833947,2.164231 4.833947,4.833946 z m 0,14 c 0,2.669716 -2.164231,4.833947 -4.833947,4.833947 -2.669715,0 -4.833946,-2.164231 -4.833946,-4.833947 0,-2.669715 2.164231,-4.833946 4.833946,-4.833946 2.669716,0 4.833947,2.164231 4.833947,4.833946 z"
     inkscape:connector-curvature="0" /><path
     sodipodi:type="arc"
     style="opacity:0.98999999;fill:url(#linearGradient4155);fill-opacity:1;stroke:none"
     id="path4147"
     sodipodi:cx="15.6875"
     sodipodi:cy="76.25"
     sodipodi:rx="7.875"
     sodipodi:ry="7.875"
     d="m 23.5625,76.25 a 7.875,7.875 0 1 1 -15.75,0 7.875,7.875 0 1 1 15.75,0 z"
     transform="matrix(0.70710678,0.70710678,-0.70710678,0.70710678,54.999154,8.8153703)" /><path
     transform="matrix(0.60609153,0.60609153,-0.60609153,0.60609153,48.881418,18.10246)"
     d="m 23.5625,76.25 a 7.875,7.875 0 1 1 -15.75,0 7.875,7.875 0 1 1 15.75,0 z"
     sodipodi:ry="7.875"
     sodipodi:rx="7.875"
     sodipodi:cy="76.25"
     sodipodi:cx="15.6875"
     id="path4161"
     style="opacity:0.98999999000000005;fill:url(#linearGradient4171);fill-opacity:1;stroke:none"
     sodipodi:type="arc" /><path
     sodipodi:type="arc"
     style="opacity:0.98999999;fill:url(#linearGradient4175);fill-opacity:1;stroke:none"
     id="path4173"
     sodipodi:cx="15.6875"
     sodipodi:cy="76.25"
     sodipodi:rx="7.875"
     sodipodi:ry="7.875"
     d="m 23.5625,76.25 a 7.875,7.875 0 1 1 -15.75,0 7.875,7.875 0 1 1 15.75,0 z"
     transform="matrix(-0.55053597,-0.55053597,0.55053597,-0.55053597,-21.166836,124.4399)" /></svg>